<svg width="25" height="25" viewBox="0 0 25 25" fill="none" xmlns="http://www.w3.org/2000/svg">
    <path
        d="M20.8333 17.6707C19.7778 17.6707 18.8333 18.0472 18.1111 18.637L8.20833 13.4287C8.27778 13.1401 8.33333 12.8514 8.33333 12.5502C8.33333 12.249 8.27778 11.9603 8.20833 11.6717L18 6.51355C18.75 7.14106 19.7361 7.53012 20.8333 7.53012C23.1389 7.53012 25 5.84839 25 3.76506C25 1.68173 23.1389 0 20.8333 0C18.5278 0 16.6667 1.68173 16.6667 3.76506C16.6667 4.06626 16.7222 4.35492 16.7917 4.64357L7 9.80171C6.25 9.1742 5.26389 8.78514 4.16667 8.78514C1.86111 8.78514 0 10.4669 0 12.5502C0 14.6335 1.86111 16.3153 4.16667 16.3153C5.26389 16.3153 6.25 15.9262 7 15.2987L16.8889 20.5196C16.8194 20.7831 16.7778 21.0592 16.7778 21.3353C16.7778 23.3559 18.5972 25 20.8333 25C23.0694 25 24.8889 23.3559 24.8889 21.3353C24.8889 19.3148 23.0694 17.6707 20.8333 17.6707Z"
        fill="white" />
</svg>